<svg width="419" height="143" viewBox="0 0 419 143" fill="none" xmlns="http://www.w3.org/2000/svg">
<path d="M153.499 45.3204C153.499 47.8086 154.742 49.7637 157.23 51.1855C159.836 52.6074 163.863 54.1478 169.311 55.8066C175.826 57.9394 181.156 60.0129 185.301 62.0272C189.565 64.0415 193.237 67.1815 196.317 71.447C199.515 75.7126 201.114 81.2816 201.114 88.1539C201.114 110.193 186.782 121.212 158.118 121.212C153.38 121.212 147.577 120.797 140.707 119.968C133.955 119.139 127.796 118.072 122.229 116.769C122.466 114.281 122.94 110.667 123.651 105.927C124.48 101.069 125.25 97.4552 125.96 95.0855C130.106 95.6779 136.324 96.3888 144.615 97.2182C153.025 98.0477 159.362 98.4624 163.626 98.4624C166.113 98.4624 167.594 98.2846 168.067 97.9292C168.778 97.4552 169.311 96.685 169.667 95.6187C170.14 94.4338 170.377 93.4266 170.377 92.5972C170.377 90.2274 169.252 88.4501 167.001 87.2652C164.751 85.9619 160.902 84.4215 155.453 82.6442C148.939 80.6299 143.549 78.5563 139.285 76.4236C135.021 74.2908 131.29 70.9731 128.092 66.4705C124.894 61.968 123.295 56.0436 123.295 48.6973C123.295 43.4838 124.48 38.3888 126.849 33.4123C129.218 28.3173 131.646 24.8811 134.133 23.1038C136.028 21.8004 139.937 20.5563 145.859 19.3714C151.781 18.1866 157.348 17.5941 162.56 17.5941C175.826 17.5941 186.663 18.8382 195.073 21.3265C194.954 23.6963 194.54 26.9547 193.829 31.1018C193.237 35.2489 192.586 39.0405 191.875 42.4767L187.789 42.2989C172.391 41.2325 162.56 40.6993 158.296 40.6993C156.519 40.6993 155.512 40.7586 155.275 40.8771C154.802 41.114 154.387 41.6472 154.032 42.4767C153.676 43.3061 153.499 44.254 153.499 45.3204Z" fill="#0D99FF"/>
<path d="M274.428 97.0405H244.935L239.605 119.257H206.914L239.605 17.9496H281.357L312.626 119.257H279.758L274.428 97.0405ZM259.504 39.8107L249.021 77.3122H270.164L260.214 39.8107H259.504Z" fill="#0D99FF"/>
<path d="M356.994 17.9496C370.852 17.9496 382.164 19.2529 390.929 21.8597C399.812 24.4664 406.682 29.3837 411.538 36.6115C416.513 43.8393 419 54.207 419 67.7147C419 82.1702 416.394 93.1896 411.183 100.773C405.971 108.238 398.983 113.214 390.218 115.702C381.453 118.072 370.378 119.257 356.994 119.257H321.461V17.9496H356.994ZM380.802 95.0855C382.223 93.6636 383.23 89.9905 383.822 84.066C384.414 78.1416 384.71 72.6912 384.71 67.7147C384.71 61.4348 384.236 56.4583 383.289 52.7851C382.46 48.9935 380.92 45.9721 378.67 43.7208C375.116 39.8107 369.016 37.8556 360.37 37.8556C358.83 37.8556 356.52 37.9741 353.441 38.2111V97.2182C355.454 97.4552 358.593 97.5737 362.857 97.5737C367.24 97.5737 371.089 97.396 374.406 97.0405C377.84 96.5666 379.972 95.9149 380.802 95.0855Z" fill="#BDE3FF"/>
<path d="M130.343 0.321675C131.469 -0.597401 133.071 0.612163 132.496 1.94694L103.649 68.9041C103.546 69.1432 103.512 69.4064 103.551 69.6637L114.518 141.392C114.737 142.823 112.896 143.592 112.033 142.431L68.9682 84.5475C68.81 84.3349 68.5943 84.172 68.3466 84.0781L0.896774 58.5122C-0.455802 57.9995 -0.220627 56.0178 1.21434 55.8362L73.1767 46.7277C73.4348 46.6951 73.6786 46.5905 73.8801 46.4259L130.343 0.321675Z" fill="#BDE3FF"/>
</svg>
